<svg xmlns="http://www.w3.org/2000/svg" width="1200" height="2050" viewBox="0 0 1200 2050"><title>LandingPage_Arbi</title><path d="M871.08,980.54c-10.1,1.18-10.09,1.18-13.6,10.7q-7,19-14.1,38a16,16,0,0,0-1.45,6c.17,8-3.82,13.93-9.09,19.32C821.63,1066,808,1074,793.94,1081.23c-6.09,3.15-12.31,6.1-18.61,8.8-3.84,1.64-6,4.07-7.68,8a142.59,142.59,0,0,0-10.32,45.34c-1.59,22.88-5.65,45.4-9,68-3.67,25.19-3,50.21,7.83,74.1,2.84,6.27,7.88,10,12.92,13.84,9.48,7.15,19.16,14,28.23,21.75,1.76,1.5,3.4,3,5.72,3.59,22,5.9,42,16.82,62.65,26.12,30.94,13.93,61.34,28.74,89.94,47.17,13.26,8.53,27.78,15.09,41.23,23.35,24.63,15.1,48.62,31.15,68.56,52.43,27.26,29.12,44.31,63.68,54.24,102,4.71,18.21,7.26,36.81,9.78,55.42,1.82,13.38,4.29,26.66,6.08,40,3.53,26.34,6.5,52.73,5.32,79.39-.43,9.65-3.07,19-3.69,28.59-.19,2.84-2.11,3.69-4.35,4.58-14.26,5.65-28.63,11-42.67,17.15-53.29,23.28-106.65,46.38-160.33,68.74-38.66,16.11-77.8,31.08-116.44,47.24-47.31,19.78-93.63,41.81-139.88,64-15.69,7.52-31.24,15.32-46.86,23-3.46,1.16-5.47,3.9-7.16,6.87-2.92,5.14-7.3,8.51-12.53,11-1.4.66-3.07,1-4,2.4a59.36,59.36,0,0,1-25.84-1.43,38.5,38.5,0,0,0-8.12-1.22c-8.3-.37-15.66-3.07-21.74-8.91a30.76,30.76,0,0,0-7.85-5.48c-67-32.93-134.34-65.11-203.28-93.79-41.64-17.32-83.93-33.08-125.38-50.9-46.48-20-92.9-40.12-139.43-60-12.4-5.3-25.37-9.21-37.63-14.94-3-1.4-4.48-3-5.08-6.38a244.7,244.7,0,0,1-2.91-61.6q2.7-34.58,8.6-68.82c2.54-14.66,4.09-29.48,6.46-44.17,5.68-35.19,17-68.3,36.12-98.64,16-25.46,37.35-45.49,61.6-62.91,20.72-14.89,42.94-27.16,65.17-39.5,10-5.55,19.57-11.89,29.41-17.75,20.5-12.22,42.22-22,63.93-31.79,12.73-5.75,25.28-11.88,37.91-17.84,3.61,13.35,3,26.67-.21,40-.58,2.43-2.28,3.84-3.92,5.39-2.69,1.26-5.37,2.53-8.07,3.77C304,1395.81,285,1404,267,1413.86c-1.44.79-3.73.92-3.6,3.81,12.85,4.73,24.41,12.14,36,19.42.5,2.49-1.41,3.69-2.78,5.16q-5.38,5.79-10.8,11.54c-3.61,3.82-6.14,8.57-10.32,11.9-14.15-10.29-29.13-18.91-46.19-23.51-4-1.07-7.45-1.18-11.16,1-7.09,4.19-14.37,8.06-21.63,12-12.93,7-24.77,15.62-36.86,23.86-12.31,8.4-23.89,17.85-33.65,29.16-22.17,25.7-35.57,55.74-42.68,88.73C80,1612.54,78,1628.4,76,1644.26c-2.43,18.79-6.11,37.38-8.36,56.23-2.19,18.28-2.31,36.51-2.39,54.8,0,5,.23,5.3,5.3,6.23,8.35,1.54,16.38,4.24,24.45,6.75C132.78,1780,169.83,1794,206.83,1808c41.29,15.63,82.73,30.84,124.17,46.07,43.4,15.94,86,33.74,128.31,52.45,28.46,12.6,56.72,25.62,84.64,39.39,1.08.53,2.22,1.87,3.93,0-4.44-5.09-8.78-10.35-13.43-15.31q-15-16-29.62-32.42c-18.93-21.16-36.07-43.74-53.09-66.41-11.26-15-22.37-30.13-34.41-44.51s-24.47-28.4-36.68-42.62c-1.75-2-3.53-4.15-4.14-6.86,2.06-1.6,4.77-.31,6.6-2,2.44-.08,4.88-.26,7.31-.21,3.48.07,6.95-1.8,10.44-.06,1,1,1.91,2,2.93,2.88,16.86,15.2,33.08,31,47.85,48.29q33.28,38.86,66.33,77.94c7.24,7.86,14.17,16,23.34,24.23-.36-2.68-.37-3.58-.6-4.43-4.55-16.53-9-33.1-14.54-49.32-2.72-8-4.36-16.32-8.31-23.86-1.07-3.73-2-7.52-3.25-11.19-7.2-21-14.17-42-20.58-63.27q-9.51-31.53-19-63c-.07-4.48,1.86-8.47,3.19-12.57,5.78-17.88,7.87-36,1-53.88-6.53-17.06-13.83-34-24.53-49a374.54,374.54,0,0,0-31.55-38c-10.16-10.87-21.06-21-30.4-32.68-.85-1.06-3.06-1.81-1.51-3.88l14.43,6.35c4.85,2.13,9.71,4.24,16,7-5.82-17.51-10.65-33.42-16.71-48.92,0-2.83,2.21-4.32,3.86-6.12,7.39-8.07,13.7-16.82,17.32-27.3a20,20,0,0,1,2-3.46c10.84,25.17,20.06,51,29.37,77.77l89-92.75c-36.21-27.44-74.61-51.91-110-81.25-3.26,3.58-5.52,7.9-9.5,10.1-7.82,4.31-13.31,11.05-19.39,17.22a6.37,6.37,0,0,1-1.84-.86,174.21,174.21,0,0,0-23.31-19c-1.17-.81-2.18-1.67-2-3.27,9.08-5.9,16.7-13.52,24.45-21a16.84,16.84,0,0,0,3.84-6.44c3-7.93,6-15.86,8.23-24a50.54,50.54,0,0,0,2.16-12.85c.19-16.94.52-33.85-3.07-50.62-4.22-19.73-6.05-39.82-7.63-59.9-1.23-15.7-5.4-30.52-10.75-45.25-2.61-7.17-6.16-11.87-13.26-15.09a141.91,141.91,0,0,1-34.57-22.22,70.43,70.43,0,0,1-8.14-8.34c-2.36-2.86-4.76-6.08-4.87-9.7-.29-9.25-4.6-17.17-7.57-25.51-7.19-20.28-14.61-40.49-21.93-60.72-2.15-5.91-2.15-6.09-8.08-6-12.75.14-24.95-3-37.24-5.71-7.83-1.72-15.6-3.75-23.5-5-8.82-1.44-15.77-5.65-21.74-12.09-5.63-6.1-9.76-13.24-14.78-20.41-5.05,5.12-10.83,5.3-17,2.78-7.47-3-14.74-6-17.86-14.7-3.72-10.35-9.78-19.65-14.42-29.62-3.08-6.64-6.37-13.2-9.17-20-5.51-13.32-10.8-26.75-17.48-39.55-6.06-11.61-5-24-3.68-36.32.71-6.34,4.44-11.61,9.46-15.48,3.15-2.43,3.29-4.74,2.31-8.22-2.94-10.41-4.63-21-3.24-31.89a44.68,44.68,0,0,1,5.46-16.84A210.16,210.16,0,0,1,164.88,659c1.24-1.34,2.36-2.82,3.7-4.06,2.57-2.39,2.67-5-.05-6.94-3.65-2.61-2.74-7.6-6.15-10.32s-4.18-6.88-5.83-10.66c-4.28-9.86-9.16-19.46-13.72-29.2-7.07-15.14-13.71-30.48-20.2-45.88-13.87-32.95-18.78-67.28-16.85-102.81,1.49-27.45,3.61-54.83,7.86-82,3.57-22.81,9.83-44.7,22-64.58a85.37,85.37,0,0,1,29.74-28.9A174.48,174.48,0,0,1,210.32,255c4.28-1.14,6.37-2.81,7-7.54,1-7.75,4.28-15,7.84-21.9,16.75-32.58,37.3-62.54,62.68-89S344,92,377.1,77.22c14.66-6.53,29.62-12.23,45.27-16a9.79,9.79,0,0,0,3.23-1.09c11.29-7.78,24.17-12,37-16.23,20.64-6.85,41.35-13.58,63-16.64A231.67,231.67,0,0,1,555,25.17c39.87-.56,79.72.36,119.56,1.74,37.47,1.3,74,8.82,110.54,16.77,49.72,10.82,92.62,34.82,132,66.32,34.36,27.51,64.18,59.36,91.78,93.43,29.27,36.15,57.32,73.23,82.82,112.17,16.84,25.71,32.23,52.26,44,80.73a548.34,548.34,0,0,1,29.59,94.95c3.29,15.45,6.9,30.83,8.47,46.58a30.57,30.57,0,0,0,.45,10.83,63.15,63.15,0,0,1,.56,17.68c-.26,3.16-1.41,6.27-5.25,7.14s-5.8-.94-7.73-4c-3.38-5.3-4.58-5.36-9.42-1.29-1.32,1.12-3,2.15-2.81,4.75,2.2.68,4.31,1.88,6.84,2.17,1.82.21.91,1.62.77,2.62-28.07,15.36-57.16,27.73-89.33,31.67-9.94,1.22-19.74,3.6-29.46,5.42-.4,2.74.92,4.43,1.88,6.18a303.5,303.5,0,0,0,35.22,51.44c9.47,11,7,24.82-5.8,31.78-8.37,4.56-17.67,6.14-26.85,8.05a104,104,0,0,1-10.84,1.7c-3.26.32-5.07,1.71-5.13,5.11a25.69,25.69,0,0,1-.32,4.11c-1.09,6-1.35,11.23,5.22,15,3.62,2.07,4.3,6.82,4.46,11,.4,10.55.2,21-2.67,31.33-5.11,18.28-9.8,36.68-15.21,54.87a361.69,361.69,0,0,1-12.15,35c-4.69,11.38-9.69,22.7-16.83,32.9-2.78,4-6.16,6.81-11,7.5-5.19.74-10.43,1.67-15.63,1.57-3.18-.06-4.42.91-5.58,3.53-3.07,6.9-6.58,13.6-9.58,20.53-5.81,13.37-16,22-29.07,27.7-3.94,1.71-7.85,3.51-11.78,5.27C894.65,972.6,883.27,977.88,871.08,980.54Zm75.65-259.73h.06c3.66,4.67,8.41,8.41,11.42,13.62,14.35,24.82,17.88,51.08,9.8,78.58-4.65,15.82-13.51,29.3-24.51,41.63C932,867.49,919,878.07,903.29,884.92a19.47,19.47,0,0,0-11.52,12.46c-6.5,18.56-13.55,36.92-20.22,55.43-1.09,3-2.94,6-2.62,9.49,2.93.62,5-.65,7.05-1.42,9.86-3.65,19.7-7.37,29.46-11.29a100.63,100.63,0,0,0,11.71-5.73,26.76,26.76,0,0,0,11.36-11.61c3.5-7.2,7-14.43,10.24-21.73,6.58-14.61,13.47-29,21.09-43.15,12.64-23.4,23.08-47.73,29.84-73.56,5-19.22,8.27-38.87,14.39-57.83a53.7,53.7,0,0,0,2.22-19c-18.88-1.32-37.42-3.2-55.44-8.39-1.06-.1-2.11-.43-2.88.81-1.28,2-2.69,4-4,6C941.91,718.67,942.28,719.39,946.73,720.81ZM861.47,690.7a32.62,32.62,0,0,0-9.59-3c-9-2.87-18-5.56-27.41-6.84h0c-1-1.59-2.58-1.44-4.14-1.24-17.28-3.71-34.72-6.45-52.27-8.49-2.24-1.6-4.87-1.1-7.32-1.13-6.87-.07-13.76-.17-20.6.29-16.63,1.13-32.32,6.13-47.71,12.18-1.95.76-3.87,1.75-4.14,4.15-.95,8.51-6.45,14.31-11.6,20.54-14.42,17.43-24,36.68-21.62,60.31,2.16,21.59,10.14,40.18,26.36,54.92A138.16,138.16,0,0,0,735,855.76a52.63,52.63,0,0,0,13.62,3.88l1.45.27c2,1.42,4.33,1.24,6.59,1.48a220.86,220.86,0,0,0,45.84-.14A337.17,337.17,0,0,0,873,847.12c4.56-1.46,7-4,8.54-8.66,8.84-27.19,16.6-54.68,24.08-82.25,2.33-8.57,5.18-17,6.79-25.77,2-3.43,1.28-6.1-1.81-8.68a96.07,96.07,0,0,1-8.14-8.25,73.16,73.16,0,0,0-24.37-17.17A104.59,104.59,0,0,0,861.47,690.7ZM387.21,860.92l3.94.36c10.94,1.82,21.93.78,32.71-.65,34.18-4.53,62.2-21,84.29-47,16.61-19.56,22.34-43,17.67-68.08-3.81-20.47-17.45-35.87-30.39-51.33-7.55-4.22-14.41-9.74-22.94-12.07-2-1.71-4.4-2.32-6.88-2.78A98.37,98.37,0,0,0,439.45,674c-1.85-1.09-3.92-1.11-6-1.2-16.4-.76-32.79-.7-49.19-.08-15.19-.45-30,1.64-44.79,5.21-28.26,6.83-52,20.66-70.64,43.24-3.77,4.58-4.63,8.82-3,14.44,9.19,31.85,17.6,63.92,27.36,95.62,2.62,8.49,6.89,13.42,15.5,14.72,17.79,6.53,36.26,10.11,55,12.59A109.26,109.26,0,0,0,387.21,860.92Zm394.68,632.84c19-9,38.1-17.87,57.06-27,15.86-7.65,31.82-15.12,47.22-23.72,11-6.14,21-13.56,30.88-21.46-10.42-9.06-109.66-56.79-121.18-58.36a21.89,21.89,0,0,0-.68,2.56c-5.05,33.84-14.5,66.55-25.23,98.94q-6.59,19.86-13.16,39.72c-1.15,1-1.66,2.08-.14,4.12C764.75,1503.17,773.32,1498.47,781.89,1493.76Zm-132-12.82a316.27,316.27,0,0,0-26.44-20.54c-17.91-12.34-35.89-24.6-50.84-40.65-.77-.83-1.6-1.66-2.93-1.41a5.57,5.57,0,0,0-1.1.78Q547,1444,525.44,1469c-4.63,5.37-9.05,10.92-13.79,16.18-3.69,4.1-3.31,7.87-.52,12.31,3.52,5.61,6.57,11.52,9.69,17.38a226.34,226.34,0,0,1,18.41,45c1.51,5.35,1.75,5.21,7.11,5.37,10.33.29,20.56-1,30.8-2,14.33-1.33,28.58-3.63,43-3.79,6-.06,11.84.41,13-8.16.46-3.27,4.36-5.91,5.61-9.24,5.19-13.88,10-27.9,14.89-41.87C659.17,1489.18,659.17,1489.18,649.86,1480.94ZM163.12,555.66a11.85,11.85,0,0,0,2.71,9c7.92,9.28,13.53,20,19.38,30.55,15,26.89,30.35,53.54,46.44,79.77,4.85,7.92,10.1,15.74,18.08,21.1,5.39,4.15,9.4,9.3,10.94,16,2.19-.68,3-2.16,3.93-3.41A93.42,93.42,0,0,1,283.78,690c25.33-18.52,54.1-27.44,85.07-29.7,17.37-1.27,34.81-1.26,52.21-.91,25.26.51,49.64,4.85,71.74,18.06a3.54,3.54,0,0,0,1.3.17c1.52-.84,1.73-2.6,2.65-3.88,4.6-6.44,10.76-9.69,18.72-9.65a30.53,30.53,0,0,1,16.21,4.93A56.77,56.77,0,0,1,545,680.9c8.94,10.61,15.44,22.67,21,35.3,2,4.54,2.06,4.51,7.06,3.55,13.23-2.52,26.36-3.33,39.12,2.32.33.14.86-.16,1.7-.34,1.3-2.87,2.68-6,4.12-9.07,6.43-13.78,13.92-26.85,25.13-37.4,5.44-5.13,11.67-8.89,19.15-10.13,6.85-1.14,13.56-.33,18.57,4.76,3.35,3.4,5.87,3.46,10.08,1.65,25.16-10.82,51-16.86,78.84-12.93,32.69,4.61,65.19,9.67,96.76,19.65,18.43,5.83,35.25,14.19,48.08,29.2.76.89,1.47,2.4,3.52,1.62.74-7.26,5-11.7,11.9-14.17,4-1.43,6.59-4.71,8.13-8.8,2.78-7.35,8.49-11.16,16-12.56a44.82,44.82,0,0,1,16.41,0,211,211,0,0,0,56.75,3.2c2.18-.19,4.63.39,6.32-1.6.22-1.63-.81-2.67-1.57-3.77a194.09,194.09,0,0,1-25.84-52.12,12.92,12.92,0,0,0-4.09-6.19c-7.89-6.59-6.55-17.65,2.38-24a36.43,36.43,0,0,1,14.57-5.83c9.67-1.84,19.4-3.4,29.06-5.3,15.72-3.09,31.57-5.39,47.14-9.33,19-4.81,34.47-17,52.47-23.73a2.37,2.37,0,0,0,1.51-2.76c-.24-1.58-.7-3.12-1-4.69-6.83-30.13-14.2-60.15-20-90.51-1.07-5.64-2.61-11.09-5.64-16.11-9.46-15.68-18.6-31.57-28.19-47.18A1446,1446,0,0,0,961.56,201.78a474.08,474.08,0,0,0-84.5-78.24c-22.48-16.1-46.22-29.67-72.66-38.22C786.94,79.68,769,75.87,751.09,72.2c-21.55-4.39-43.16-8.66-65.14-9.82-41.41-2.2-82.88-2.51-124.35-2.66-29.73-.11-58.4,5-85.52,17.23-17.56,8-35.67,14.32-53.82,20.66-25.54,8.93-50.48,19.17-73.85,33-18.89,11.17-35.87,24.5-50.09,41.34-19,22.45-35.44,46.66-51.52,71.19-.21.33-.1.87-.14,1.32,4.48,4,5.31,6.37,3.62,12a39.13,39.13,0,0,1-17.08,22.46c-6.61,4.18-13.76,7.27-20.87,10.43-9.84,4.38-19.55,9-28.68,14.77a56.5,56.5,0,0,0-20.05,22.12,133.48,133.48,0,0,0-13,38.93c-6,33.68-8.6,67.67-9.07,101.83a165,165,0,0,0,7,50.16C152.51,530.33,158,542.94,163.12,555.66ZM860.24,899.52c-20.43,4.32-39.38,7.55-58.59,9s-38.45,2-57.56-1.43C712.41,901.41,684.85,887.1,660,867c-29.29-23.74-46.82-54.07-51.46-91.62-.31-2.51-1.11-4.31-3.41-5.48a16,16,0,0,1-4.62-2.94c-5.78-6.23-12.94-6-20.37-4.65-5.77,1.06-5.72,1.14-6.22,7-2.26,26.69-10.47,51.49-27.67,72-37.21,44.43-84.68,68.33-143.38,67.61-27.11-.33-53.84-4.15-80.3-10-1.87-.42-3.78-1.65-6,.13.75,2.15,1.46,4.3,2.24,6.43q10.28,27.71,20.56,55.39c8.1,21.67,15.48,43.59,23.92,65.14,3.36,8.58,8.43,15,17.05,18.51,2.75,1.12,5.35,2.62,8.06,3.84C414.4,1060,441,1069.9,466.76,1082c22.18,10.42,44.34,20.89,66.92,30.43,15.82,6.69,32.51,11.15,48,18.64,2.72,1.31,5.16,1,7.89-.13,10.86-4.27,21.43-9.27,32.56-12.9,10.67-3.48,21.06-7.74,31.34-12.27,38.56-17,76.29-35.85,115.54-51.29,11.72-4.61,23.33-9.5,34.29-15.84a19.54,19.54,0,0,0,8.29-8.8c3.44-7.25,6.33-14.72,9.09-22.24q15.52-42.24,31-84.5C854.41,915.63,857.1,908.17,860.24,899.52ZM646.6,1930c1.27.84,2.17-.27,3.1-.71,30.95-14.88,62.48-28.44,93.93-42.19,43-18.8,87.11-34.77,131.07-51.12,38.38-14.27,76.69-28.77,115.17-42.8,35.21-12.85,70.15-26.61,106.74-35.3,3.41-.81,4.34-2.26,4.42-5.53a400,400,0,0,0-3.42-64.36c-3.48-25.8-7.85-51.47-11.68-77.22-3.91-26.25-11.42-51.24-24.21-74.64a167.82,167.82,0,0,0-41.36-49.89c-19.37-15.84-40.58-28.94-62.34-41.19-3.19-1.8-6.49-3.4-9.75-5.08-1.3-.67-2.73-1.07-3.62.45-3.52,6-9.73,8.9-14.95,12.91-13.85,10.64-28.92,19.3-44.6,26.87-35.05,16.92-71.1,31.57-106.81,47-5.95,2.58-12.25,4.91-17.49,9.78,5.08,5.88,9.93,11.3,14.58,16.9,12.28,14.77,24.66,29.46,36.64,44.47,12.54,15.72,24.56,31.87,37.06,47.63,4,5,9,9.16,13.09,14.06,6.75,8,9.52,20.51-1.19,26.82-6.33,3.73-9.38,9.73-13.88,14.73a8.94,8.94,0,0,0-2.18,5.67c-.33,7.7-3.89,14.12-8.65,19.78-7.36,8.75-15.14,17.15-22.72,25.72-7.72,8.75-15.57,17.39-23.1,26.3-12.86,15.2-25.78,30.34-39.83,44.47-6.13,6.17-12.63,12-18.85,18-9.5,9.28-18.64,18.91-27.82,28.51-18.37,19.18-36.2,38.9-55.43,57.25C647.73,1928.1,646.76,1928.77,646.6,1930Zm80-816.72c-2.49,0-4.35,1.38-6.33,2.34-9.08,4.36-18.06,8.91-27.18,13.18-21,9.81-42.23,18.8-64,26.6-12.66,4.53-24.54,10.8-38.29,12.61-8.54,1.13-16.38,1.33-24-2.34-12.63-6-25.92-10.36-38.91-15.44-28.18-11-55.17-24.65-82.39-37.78-2.62-1.26-5.14-2.82-8.22-3.33-.69,1.65.08,2.9.47,4.15,3.07,9.64,4.56,19.59,5.87,29.58,2.2,16.79,3.48,33.73,7.11,50.3,4.35,19.84,5.33,39.88,5,60.08a93.14,93.14,0,0,1-2,17.7c-.8,3.79-3.12,7.91-2.25,11.23,1,4,6.53,4.36,10,6.4,21.55,12.61,42.56,26.08,63.5,39.66q22.49,14.57,44.64,29.64c3.36,2.28,5.76,2.47,9.05-.22a153.82,153.82,0,0,1,14.68-10.16c22.4-14.27,44.9-28.4,66.61-43.72,12.55-8.86,25-17.83,34.56-30.14a25.67,25.67,0,0,1,12.91-8.76c3.23-1,4-2.33,3.78-5.84-1.12-20.15-1.2-40.27,2.69-60.23,1.84-9.43,3.51-18.9,4.89-28.41,2.67-18.34,3.8-36.9,8.09-55A7.18,7.18,0,0,0,726.61,1113.32Zm-214.8,543.6a11.88,11.88,0,0,0,.23,9.73,60.2,60.2,0,0,1,2.84,7.7c12.23,41,25.06,81.81,39.41,122.13a948.33,948.33,0,0,1,32.56,111.94c.81,3.63,1,7.59,3.86,11.32,2.14-4.37,2.4-8.67,3-12.8,1.29-8.67,5.43-16.51,6.86-25.12a284.86,284.86,0,0,1,11.52-46.54c12.47-36.11,26.13-71.8,37.29-108.37,7.08-23.18,14.81-46.17,22.41-69.19,1.15-3.47.9-5.92-1.82-8.55-15.32-14.79-26.61-32.52-36.56-51.14-1.85-3.45-4.06-4.28-7.64-4.2-13.74.32-27.36,2.07-41,3.39-13.22,1.28-26.41,2.45-39.7,1.93-6.6-.26-6.57-.28-8.16,6.21-2.84,11.55-5.52,23.16-9.61,34.34-2.08,5.71-3.15,11.91-7.72,16.61C517.19,1658.77,515.11,1659.89,511.81,1656.92Zm123.35,242c3.37-3.66,6.78-7.29,10.09-11,25.81-28.85,51.35-58,79.45-84.67,5.63-5.36,11-11,16.13-16.89,29.93-34,59.71-68.23,90.24-101.75.91-1,2-1.89,2.3-3.34-.32-1.72-1.67-2.69-2.8-3.81a167.16,167.16,0,0,1-18.27-21.41c-21.95-30.48-44.87-60.26-66.07-91.29-1.85-2.7-3.18-6-6.94-7.73-1.35,4.2-2.7,8.08-3.83,12-11.61,40.25-23.37,80.47-36.35,120.31-14.68,45.06-28.33,90.47-45.27,134.77C644.66,1848.14,637.7,1872.72,635.16,1898.91Zm89.73-406.3c1-2.3,1.62-3.74,2.15-5.23,5.57-15.51,11.09-31,16.68-46.54,10.33-28.66,18.13-58.11,27.32-87.12.92-2.89.45-4.53-2-6.33a116.31,116.31,0,0,1-11.58-9.67c-5.94-5.65-11.07-12.12-18.48-16.19-3.4-1.86-5.58-5.35-7.92-8.49-1.17-1.57-1.73-3.74-4.28-4.65-15.25,16.88-34.18,29.38-52.88,42.16-18.53,12.66-37.39,24.81-56.45,36.66-4.2,2.6-8.7,4.92-12.09,9.19a166.6,166.6,0,0,0,18.18,12.74c11.06,6.93,22.35,13.47,33,21,21.8,15.44,40.71,34,58.8,53.56C718.1,1486.7,720.76,1489.85,724.89,1492.61ZM296.59,929.14c-5.06-14-10-27.68-15-41.38-.76-2.1-2.63-3-4.49-4-4.23-2.25-8.6-4.22-12.59-7a144.21,144.21,0,0,1-29.38-26.6c-12.7-15.28-21.75-32.15-24.31-52.07-3-23.47.92-45.52,14-65.59,3.36-5.18,3.43-5.2-1-9.55-13.13-13-24-27.62-31-44.82-1.93-4.74-5.16-7.83-8.91-10.52-.8.38-1.32.47-1.58.77-9.93,11.7-19.36,23.8-27.15,37a30.66,30.66,0,0,0-4.62,17,73,73,0,0,0,2.08,16.26c2.43,9.06,5.39,17.93,8.48,26.79,14.63,42,32.12,82.72,53.66,121.63,5.41,9.77,10.9,19.6,18.89,27.7a16.89,16.89,0,0,0,8.73,5c12.51,2.71,24.94,5.79,37.5,8.13C285.07,928.91,290.38,931.15,296.59,929.14Zm389.67,681.79c8-27,15.78-52.86,24.53-79.16-10.42-.61-17.23-5.77-23.24-12.33-2.47-2.69-4.95-5.39-7.49-8-1-1.08-1.81-2.81-4-2.11-1,6.7-1.83,13.51-3.07,20.23-2.11,11.45-3.73,23.08-10.2,33.2a9.59,9.59,0,0,0-1.21,4.59c-1,12.1-1,12.1,6.88,22.07,1,1.25,1.88,2.59,2.91,3.81C676.06,1598.75,680,1605,686.26,1610.93Zm-185.77,14.32c1.14-1,1.64-1.18,1.79-1.54,4.48-10.77,8.92-21.55,15.07-31.51,1.35-2.19,1.13-4.26-.14-6.44a44.64,44.64,0,0,1-4.71-12.82c-4.62-20.81-12.14-40.71-19-60.8-.51-1.48-.61-3.2-2.32-4-1.49.34-2.15,1.62-3,2.67-4.31,5.34-8.26,11-13,15.93-3.25,3.36-3.38,6.25-2,10.4,6.09,18.67,11.9,37.45,17.73,56.21C494.09,1603.81,497.19,1614.3,500.49,1625.25ZM918.23,813.51c8.53-9.46,13.48-28,10.76-40.24C925.3,787.05,922,799.59,918.23,813.51Z" fill="#1f2d6a"/><path d="M380.53,1319.19c-.15,1.6.86,2.46,2,3.27a174.21,174.21,0,0,1,23.31,19,6.37,6.37,0,0,0,1.84.86c-.33,2.26.91,3.78,2.21,5.45,2.79,3.59,5.51,7.25,7.92,11.09,7.27,11.61,11.88,24,10.71,38-.4,4.75-.26,9.55-.37,14.33a20,20,0,0,0-2,3.46c-3.62,10.48-9.93,19.23-17.32,27.3-1.65,1.8-3.83,3.29-3.86,6.12-1-.27-2.14-1-3.16,0-4.57,4.58-10.4,7.32-15.7,10.84-6.5,4.31-7.53,8.53-4.48,15.65,2,4.58,5.95,6.57,9.64,9.09-1.55,2.07.66,2.82,1.51,3.88,9.34,11.63,20.24,21.81,30.4,32.68a374.54,374.54,0,0,1,31.55,38c10.7,15,18,31.89,24.53,49,6.84,17.85,4.75,36-1,53.88-1.33,4.1-3.26,8.09-3.19,12.57-2.7.08-3,2.46-3.94,4.18-8.85,16.61-20.58,30.48-36.77,40.55a140.52,140.52,0,0,1-27.64,13.28c-2.12.74-5.35.3-5.82,3.77-3.49-1.74-7,.13-10.44.06-2.43,0-4.87.13-7.31.21a19.83,19.83,0,0,0-6.83,0,138.62,138.62,0,0,1-47-.68c-17.26-3.38-34-9-49.33-18-18.13-10.76-31.55-25.49-37.81-46-4-13.19-5.08-26.86-6.14-40.48-.56-7.29,0-14.65-.18-22-.52-18.38,4.11-35.23,14.43-50.5,1.26-1.88,3-3.93,2.68-6.2-1.28-8.73.57-17.31.77-26,.32-13.93,3.26-27.2,9.88-39.49,3.77-7,8-13.79,12-20.67,4.18-3.33,6.71-8.08,10.32-11.9s7.21-7.68,10.8-11.54c1.37-1.47,3.28-2.67,2.78-5.16,3.25.71,5-1.51,6.89-3.5,9.12-9.74,15.8-21.11,21.2-33.18,2-4.5,4.08-9.13,5-14.13.32-1.81-.06-2.52-1.71-2.81,1.64-1.55,3.34-3,3.92-5.39,3.18-13.32,3.82-26.64.21-40-.09-11.85-4.89-22.21-10.94-31.93-5.91-9.48-12.36-18.66-20.52-26.46-.74-.71-1.82-1.29-1.72-3a140.79,140.79,0,0,1,16.32,9.72c10.74,7,22.22,12.66,33.71,18.27a173.51,173.51,0,0,1,22.51,13C376.22,1319.05,378.08,1320.14,380.53,1319.19ZM359.83,1667c27.1.66,46.17-21.81,46.24-46,.07-24-19.86-41.92-44.69-42.58-25.34-.66-45.08,18-45.33,43.82S336,1667.93,359.83,1667Z" fill="#9bd0d4"/><path d="M646.6,1930c.16-1.27,1.13-1.94,1.92-2.7,19.23-18.35,37.06-38.07,55.43-57.25,9.18-9.6,18.32-19.23,27.82-28.51,6.22-6.07,12.72-11.86,18.85-18,14-14.13,27-29.27,39.83-44.47,7.53-8.91,15.38-17.55,23.1-26.3,7.58-8.57,15.36-17,22.72-25.72,4.76-5.66,8.32-12.08,8.65-19.78a8.94,8.94,0,0,1,2.18-5.67c4.5-5,7.55-11,13.88-14.73,10.71-6.31,7.94-18.78,1.19-26.82-4.12-4.9-9.13-9.06-13.09-14.06-12.5-15.76-24.52-31.91-37.06-47.63-12-15-24.36-29.7-36.64-44.47-4.65-5.6-9.5-11-14.58-16.9,5.24-4.87,11.54-7.2,17.49-9.78,35.71-15.41,71.76-30.06,106.81-47,15.68-7.57,30.75-16.23,44.6-26.87,5.22-4,11.43-6.9,14.95-12.91.89-1.52,2.32-1.12,3.62-.45,3.26,1.68,6.56,3.28,9.75,5.08,21.76,12.25,43,25.35,62.34,41.19a167.82,167.82,0,0,1,41.36,49.89c12.79,23.4,20.3,48.39,24.21,74.64,3.83,25.75,8.2,51.42,11.68,77.22a400,400,0,0,1,3.42,64.36c-.08,3.27-1,4.72-4.42,5.53-36.59,8.69-71.53,22.45-106.74,35.3-38.48,14-76.79,28.53-115.17,42.8-44,16.35-88.05,32.32-131.07,51.12-31.45,13.75-63,27.31-93.93,42.19C648.77,1929.77,647.87,1930.88,646.6,1930Z" fill="#6b8ab9"/><path d="M275.51,1465.69c-4,6.88-8.21,13.66-12,20.67-6.62,12.29-9.56,25.56-9.88,39.49-.2,8.65-2.05,17.23-.77,26,.33,2.27-1.42,4.32-2.68,6.2-10.32,15.27-14.95,32.12-14.43,50.5.2,7.33-.38,14.69.18,22,1.06,13.62,2.13,27.29,6.14,40.48,6.26,20.55,19.68,35.28,37.81,46,15.29,9.07,32.07,14.65,49.33,18a138.62,138.62,0,0,0,47,.68,19.83,19.83,0,0,1,6.83,0c-1.83,1.7-4.54.41-6.6,2,.61,2.71,2.39,4.82,4.14,6.86,12.21,14.22,24.65,28.25,36.68,42.62s23.15,29.51,34.41,44.51c17,22.67,34.16,45.25,53.09,66.41q14.64,16.36,29.62,32.42c4.65,5,9,10.22,13.43,15.31-1.71,1.87-2.85.53-3.93,0-27.92-13.77-56.18-26.79-84.64-39.39C417,1887.8,374.4,1870,331,1854.06c-41.44-15.23-82.88-30.44-124.17-46.07-37-14-74.05-28-111.86-39.72-8.07-2.51-16.1-5.21-24.45-6.75-5.07-.93-5.32-1.26-5.3-6.23.08-18.29.2-36.52,2.39-54.8,2.25-18.85,5.93-37.44,8.36-56.23,2-15.86,4-31.72,7.37-47.36,7.11-33,20.51-63,42.68-88.73,9.76-11.31,21.34-20.76,33.65-29.16,12.09-8.24,23.93-16.9,36.86-23.86,7.26-3.9,14.54-7.77,21.63-12,3.71-2.19,7.19-2.08,11.16-1C246.38,1446.78,261.36,1455.4,275.51,1465.69Z" fill="#6b8ab9"/><path d="M511.81,1656.92c3.3,3,5.38,1.85,7.78-.61,4.57-4.7,5.64-10.9,7.72-16.61,4.09-11.18,6.77-22.79,9.61-34.34,1.59-6.49,1.56-6.47,8.16-6.21,13.29.52,26.48-.65,39.7-1.93,13.65-1.32,27.27-3.07,41-3.39,3.58-.08,5.79.75,7.64,4.2,10,18.62,21.24,36.35,36.56,51.14,2.72,2.63,3,5.08,1.82,8.55-7.6,23-15.33,46-22.41,69.19-11.16,36.57-24.82,72.26-37.29,108.37a284.86,284.86,0,0,0-11.52,46.54c-1.43,8.61-5.57,16.45-6.86,25.12-.62,4.13-.88,8.43-3,12.8-2.83-3.73-3.05-7.69-3.86-11.32a948.33,948.33,0,0,0-32.56-111.94c-14.35-40.32-27.18-81.12-39.41-122.13a60.2,60.2,0,0,0-2.84-7.7A11.88,11.88,0,0,1,511.81,1656.92Z" fill="#6b8ab9"/><path d="M653.67,1500.21c-4.92,14-9.7,28-14.89,41.87-1.25,3.33-5.15,6-5.61,9.24-1.18,8.57-7,8.1-13,8.16-14.43.16-28.68,2.46-43,3.79-10.24,1-20.47,2.26-30.8,2-5.36-.16-5.6,0-7.11-5.37a226.34,226.34,0,0,0-18.41-45c-3.12-5.86-6.17-11.77-9.69-17.38-2.79-4.44-3.17-8.21.52-12.31,4.74-5.26,9.16-10.81,13.79-16.18Q547,1444,568.55,1419.12a5.57,5.57,0,0,1,1.1-.78c1.33-.25,2.16.58,2.93,1.41,14.95,16,32.93,28.31,50.84,40.65a316.27,316.27,0,0,1,26.44,20.54c-.32.3-1,.65-.92.87C650.09,1488.05,650.18,1494.57,653.67,1500.21Z" fill="#6b8ab9"/><path d="M912.38,730.44c-1.61,8.76-4.46,17.2-6.79,25.77-7.48,27.57-15.24,55.06-24.08,82.25-1.52,4.67-4,7.2-8.54,8.66a337.17,337.17,0,0,1-70.45,14.13,220.86,220.86,0,0,1-45.84.14c-2.26-.24-4.61-.06-6.6-1.48,6.73,1.09,10.74-1.93,13.06-8.13.94-2.53,2.75-4.74,4.12-7.11,14.62-25.37,29.57-50.55,45.72-75,10-15.06,20.17-30,30-45.1a220.32,220.32,0,0,0,17.19-31.18c13.06,3.16,24.24,9.8,34.38,18.42C901.13,717.43,906.37,724.3,912.38,730.44Z" fill="#9bd0d4"/><path d="M296.59,929.14c-6.21,2-11.52-.23-16.73-1.21-12.56-2.34-25-5.42-37.5-8.13a16.89,16.89,0,0,1-8.73-5c-8-8.1-13.48-17.93-18.89-27.7-21.54-38.91-39-79.64-53.66-121.63-3.09-8.86-6.05-17.73-8.48-26.79a73,73,0,0,1-2.08-16.26,30.66,30.66,0,0,1,4.62-17c7.79-13.24,17.22-25.34,27.15-37,.26-.3.78-.39,1.58-.77,3.75,2.69,7,5.78,8.91,10.52,7,17.2,17.91,31.8,31,44.82,4.39,4.35,4.32,4.37,1,9.55-13.06,20.07-17,42.12-14,65.59,2.56,19.92,11.61,36.79,24.31,52.07a144.21,144.21,0,0,0,29.38,26.6c4,2.75,8.36,4.72,12.59,7,1.86,1,3.73,1.9,4.49,4C286.57,901.46,291.53,915.18,296.59,929.14Z" fill="#6b8ab9"/><path d="M472.49,682.15c8.53,2.33,15.39,7.85,22.94,12.07,12.94,15.46,26.58,30.86,30.39,51.33,4.67,25.09-1.06,48.52-17.67,68.08-22.09,26-50.11,42.47-84.29,47-10.78,1.43-21.77,2.47-32.71.65,6.91,1,9.3-3.38,11.1-9A276.28,276.28,0,0,1,413.77,823c10-22.06,21.64-43.35,31.34-65.56,6.67-15.29,13.13-30.65,18.06-46.62C466.13,701.21,469.37,691.7,472.49,682.15Z" fill="#9bd0d4"/><path d="M384.3,672.72c-3.49,4.13-4.75,9.37-6.85,14.15-12.42,28.24-24.55,56.61-36.92,84.88-7.52,17.16-15.53,34.1-22.88,51.33-3.21,7.51-7.94,14.48-8.93,22.87-8.61-1.3-12.88-6.23-15.5-14.72-9.76-31.7-18.17-63.77-27.36-95.62-1.62-5.62-.76-9.86,3-14.44,18.62-22.58,42.38-36.41,70.64-43.24C354.27,674.36,369.11,672.27,384.3,672.72Z" fill="#9bd0d4"/><path d="M950.85,708.6c18,5.19,36.56,7.07,55.44,8.39a53.7,53.7,0,0,1-2.22,19c-6.12,19-9.36,38.61-14.39,57.83-6.76,25.83-17.2,50.16-29.84,73.56-7.62,14.11-14.51,28.54-21.09,43.15-3.29,7.3-6.74,14.53-10.24,21.73a26.76,26.76,0,0,1-11.36,11.61,100.63,100.63,0,0,1-11.71,5.73c-9.76,3.92-19.6,7.64-29.46,11.29-2.07.77-4.12,2-7.05,1.42-.32-3.46,1.53-6.46,2.62-9.49,6.67-18.51,13.72-36.87,20.22-55.43a19.47,19.47,0,0,1,11.52-12.46C919,878.07,932,867.49,943.5,854.65c11-12.33,19.86-25.81,24.51-41.63,8.08-27.5,4.55-53.76-9.8-78.58-3-5.21-7.76-9-11.42-13.62,2.09-1.54,2.48-4.09,3.67-6.17S952.67,710.74,950.85,708.6Z" fill="#6b8ab9"/><path d="M768.06,671.14c-9.28-1.91-12.93,3.88-16.57,11.05C738.56,707.68,725,732.82,712,758.27c-10.27,20.13-20.05,40.5-30,60.8a11.84,11.84,0,0,0-.54,3.33c-16.22-14.74-24.2-33.33-26.36-54.92-2.35-23.63,7.2-42.88,21.62-60.31,5.15-6.23,10.65-12,11.6-20.54.27-2.4,2.19-3.39,4.14-4.15,15.39-6.05,31.08-11.05,47.71-12.18,6.84-.46,13.73-.36,20.6-.29C763.19,670,765.82,669.54,768.06,671.14Z" fill="#9bd0d4"/><path d="M363.7,858.54c3.7.12,5-2.53,6.16-5.35,5-12,10.11-24,15.12-36,8-19.17,16.13-38.29,23.93-57.54,10.53-26,21-52.08,29-79,.65-2.18,1.06-4.43,1.58-6.65a98.37,98.37,0,0,1,26.16,5.37c-4.21-.35-4.6,3-5.41,5.76-4.78,16-10.19,31.78-16.44,47.25-10.71,26.51-23.61,52-36.21,77.65a377,377,0,0,0-20.34,50.89A109.26,109.26,0,0,1,363.7,858.54Z" fill="#9cd0d4"/><path d="M735,855.76a5,5,0,0,0,4.56-3.26c7.63-16.3,15.34-32.57,23.46-48.63,11.42-22.57,23.26-44.93,34.87-67.41,9.42-18.26,18.41-36.73,26.56-55.59,9.39,1.28,18.42,4,27.41,6.84a12.71,12.71,0,0,0-2.31,2.46,445.93,445.93,0,0,1-30.72,50.17c-19.94,28.72-38.37,58.41-56,88.59q-7.1,12.12-14.17,24.26c-1.22,2.11-2.91,4.29,0,6.45A52.63,52.63,0,0,1,735,855.76Z" fill="#9cd0d4"/><path d="M918.23,813.51c3.72-13.92,7.07-26.46,10.76-40.24C931.71,785.46,926.76,804.05,918.23,813.51Z" fill="#7c9aba"/><path d="M653.67,1500.21c-3.49-5.64-3.58-12.16-4.73-18.4,0-.22.6-.57.92-.87C659.17,1489.18,659.17,1489.18,653.67,1500.21Z" fill="#6b8ab9"/><path d="M943.93,715.39c-.6,2.6,1.86,3.62,2.8,5.42C942.28,719.39,941.91,718.67,943.93,715.39Z" fill="#6b8ab9"/><path d="M824.47,680.87c-1.61.33-3.07.18-4.15-1.24C821.89,679.43,823.44,679.28,824.47,680.87Z" fill="#9cd0d4"/><path d="M334.78,1623.43c-.66-15.14,14.66-26.78,30.48-24.66,13.25,1.78,21.89,12.8,20.22,25.47-1.87,14.19-14.49,24.42-27.69,22.51a33.39,33.39,0,0,1-11.65-3.75C338.41,1638.68,334.71,1632.32,334.78,1623.43Z" fill="#1f2d6a"/></svg>