<svg xmlns="http://www.w3.org/2000/svg" width="1932.31" height="346.74" viewBox="0 0 1932.31 346.74"><title>CXA_Logo_WhiteArtboard 1</title><path d="M1043.77,118.66l-43.34,81.85-43.34-81.85H931.93l68.5,126,68.47-126Z" fill="#fff"/><rect x="1312.86" y="118.66" width="22.94" height="120.59" fill="#fff"/><path d="M866.05,114.37A64.59,64.59,0,1,0,930.64,179h0a64.58,64.58,0,0,0-64.58-64.59Zm0,107.34A42.75,42.75,0,1,1,908.8,179,42.75,42.75,0,0,1,866.05,221.71Z" fill="#fff"/><path d="M1424.65,114.37A64.59,64.59,0,1,0,1489.24,179a64.59,64.59,0,0,0-64.59-64.59Zm0,107.34A42.75,42.75,0,1,1,1467.4,179h0A42.75,42.75,0,0,1,1424.65,221.71Z" fill="#fff"/><path d="M547,118.66H522.48l-41.14,85.9h0l-.83,1.7-43.63-87.67-25.21.07,57.49,111.79s-12.9,40.14-48.43,40.45L423,293.52s38.33,11.25,68.1-60.1h0l1.46-3Z" fill="#fff"/><path d="M788,211.51c-10,12.32-25.21,10.2-25.21,10.2-25.2,0-25.2-20.89-25.2-20.89V140h48.7V118.69h-48.7v-49H714.64v49h-20V140h20v60.81c0,47.49,48.12,42.75,48.12,42.75,22.6,0,35.21-11.42,35.21-11.42Z" fill="#fff"/><path d="M1280.68,211.51c-10,12.32-25.21,10.2-25.21,10.2-25.21,0-25.21-20.89-25.21-20.89V140H1279V118.69h-48.7v-49h-23v49h-20V140h20v60.81c0,47.49,48.12,42.75,48.12,42.75,22.6,0,35.21-11.42,35.21-11.42Z" fill="#fff"/><circle cx="1324.33" cy="84.65" r="17.59" fill="#fff"/><path d="M1167.94,199.85l-.22-9.69V164.32s5.62-48.78-39-48.78c0,0-33.8-4.32-53.61,15.49l10,16.48s13.89-11.64,36.39-11.64c19.91,0,25,10.34,25,28.42v4.64c-7.49-3.78-17.38-6.56-30.31-6.56,0,0-51.68-1.74-51.68,41.33,0,35.53,43.92,40,43.92,40,14.91,0,28-8.12,38-17.37v12.93h21.17v-39A2.41,2.41,0,0,0,1167.94,199.85Zm-56.63,22.42c-21.52,0-23.7-14.44-23.7-19.23s1.08-19.32,28.65-19.32c13.79,0,23.6,2.63,30.31,5.59v11.24c-5.42,6.9-18.67,21.72-35.26,21.72Z" fill="#fff"/><path d="M624.21,115.54s-19.38-2.26-36.5,17.77V118.66H564.77v155l22.93,16.78V223.52c8.72,18.35,36.5,20.59,36.5,20.59s59.45-1.46,59.45-65.17C683.65,178.93,683.65,115.54,624.21,115.54Zm0,103.71c-35.85,0-36.5-40.31-36.5-40.31v-4.37s2.59-37.36,36.5-37.36c0,0,35.85,1.44,35.85,41.75,0,0-1.27,40.28-35.85,40.28Z" fill="#fff"/><path d="M374.22,118.66s-30.53-2.46-44.9,23.7v-23.7h-.1L306.38,135.4V239.25h22.94V179s7-37.74,37.8-37.74c0,0,14.37-1,21.33,4.85l9.2-20.18A43.43,43.43,0,0,0,374.22,118.66Z" fill="#fff"/><path d="M1581.3,120.4c-26.64,0-42,21.81-42,21.81V118.69l-22.94,16.79v103.8h22.94V185c0-7,8.07-42.8,40.38-42.8,20.35,0,18.45,22.13,18.45,22.13v74.93h22.94V164.32S1623.76,120.4,1581.3,120.4Z" fill="#fff"/><path d="M249.41,85.18a10.3,10.3,0,0,1,.17-1.83,118.28,118.28,0,1,0,0,180.09,11.7,11.7,0,1,1,13.4,9.71,10.59,10.59,0,0,1-1.86.14,10.92,10.92,0,0,1-2.73-.34,131.2,131.2,0,1,1,0-199.14,11.57,11.57,0,0,1,2.75-.34,11.72,11.72,0,1,1-11.71,11.71Z" fill="#fff"/><path d="M288.33,273.27a16,16,0,0,0-16,16h0c0,.36,0,.7,0,1.07a152.4,152.4,0,0,1-99.43,36.55c-84.65,0-153.54-68.88-153.54-153.53S88.26,19.86,172.91,19.86a152.34,152.34,0,0,1,99.43,36.56c0,.34,0,.68,0,1a16,16,0,1,0,16-16h0a16.66,16.66,0,0,0-3.3.35A171.4,171.4,0,0,0,172.91.46C77.57.46,0,78,0,173.4S77.57,346.3,172.91,346.3A171.43,171.43,0,0,0,285.06,305a16,16,0,0,0,6.57-31.38A16.57,16.57,0,0,0,288.33,273.27Z" fill="#fff"/><path d="M1920.6,298.7a10.87,10.87,0,0,0-2.34.24L1792.45,173.13,1917.82,47.75a10.86,10.86,0,0,0,2.78.34,11.71,11.71,0,1,0-11.71-11.71,11.84,11.84,0,0,0,.17,1.88L1774.19,173.13l134.94,134.94a13.08,13.08,0,0,0-.24,2.34,11.72,11.72,0,1,0,11.72-11.71Zm-224-196.8a14.45,14.45,0,0,0,2.08-.15l57.44,57.9L1883.93,31.84a14.22,14.22,0,0,0,2.61.22,16,16,0,1,0-16-16h0a12.46,12.46,0,0,0,.1,1.73L1756.16,132.21l-43.7-44.07a19.1,19.1,0,0,0,.17-2.27,16,16,0,1,0-16,16Zm189.91,212.8a15.86,15.86,0,0,0-2.17.17l-128-128-57.61,57.61a15.88,15.88,0,0,0-2.18-.17,16.22,16.22,0,1,0,16,16.4,15.43,15.43,0,0,0-.18-2.54l43.93-43.92,114.27,114.27a14.32,14.32,0,0,0-.17,2.17,16,16,0,1,0,16-16ZM1738,173.13l-59.34-59.35a12.22,12.22,0,0,0,.24-2.34,11.71,11.71,0,1,0-11.71,11.71,10.22,10.22,0,0,0,2.34-.24l50.2,50.19-49.66,49.68a10.78,10.78,0,0,0-2.88-.36,11.71,11.71,0,1,0,11.71,11.71,11.5,11.5,0,0,0-.14-1.76Z" fill="#fff"/></svg>