<svg xmlns="http://www.w3.org/2000/svg" width="160" height="16" viewBox="0 0 160 16"><g transform="translate(0 0)"><g class="nc-icon-wrapper" fill="#585c64"><path fill="#585c64" d="M13,0H3C1.9,0,1,0.9,1,2v11c0,0.6,0.4,1,1,1v1c0,0.6,0.4,1,1,1h2c0.6,0,1-0.4,1-1v-1h4v1c0,0.6,0.4,1,1,1h2 c0.6,0,1-0.4,1-1v-1c0.6,0,1-0.4,1-1V2C15,0.9,14.1,0,13,0z M4,12c-0.6,0-1-0.4-1-1s0.4-1,1-1s1,0.4,1,1S4.6,12,4,12z M12,12 c-0.6,0-1-0.4-1-1s0.4-1,1-1s1,0.4,1,1S12.6,12,12,12z M13,8H3V2h10V8z"/></g></g><g transform="translate(16 0)"><g class="nc-icon-wrapper" fill="#585c64"><path fill="#585c64" d="M6,1C3.1,1,0,3.2,0,7c0,3.7,6,9,6,9s6-5.3,6-9C12,3.2,8.9,1,6,1z M6,9C4.9,9,4,8.1,4,7c0-1.1,0.9-2,2-2 s2,0.9,2,2C8,8.1,7.1,9,6,9z"/> <path data-color="color-2" fill="#585c64" d="M14,7c0,1-0.3,2.1-0.8,3.2C14.5,8.7,16,6.6,16,4.9C16,1.8,13.4,0,11.1,0c-0.3,0-0.7,0-1,0.1 C12.3,1.4,14,3.8,14,7z"/></g></g><g transform="translate(32 0)"><g class="nc-icon-wrapper" fill="#585c64"><path fill="#585c64" d="M8,0C3.6,0,0,3.6,0,8s3.6,8,8,8s8-3.6,8-8S12.4,0,8,0z M12.1,12.3c-0.4-0.7-1.2-1-2.1-1.3 c-0.7-0.2-0.9-0.6-1-1.2c1.1-0.4,2-1.5,2-2.8c0-1.7-1.3-3-3-3S5,5.3,5,7c0,1.3,0.8,2.4,2,2.8c-0.1,0.6-0.3,1-1,1.2 c-0.9,0.3-1.7,0.6-2.1,1.3C2.7,11.2,2,9.7,2,8c0-3.3,2.7-6,6-6s6,2.7,6,6C14,9.7,13.3,11.2,12.1,12.3z"/></g></g><g transform="translate(48 0)"><g class="nc-icon-wrapper" fill="#585c64"><path fill="#585c64" d="M8,9L8,9C5.8,9,4,7.2,4,5V4c0-2.2,1.8-4,4-4h0c2.2,0,4,1.8,4,4v1C12,7.2,10.2,9,8,9z"/> <path data-color="color-2" fill="#585c64" d="M10,11H6c-2.8,0-5,2.2-5,5v0h14v0C15,13.2,12.8,11,10,11z"/></g></g><g transform="translate(64 0)"><g class="nc-icon-wrapper" fill="#585c64"><path fill="#585c64" d="M13.3,5.2l1.1-2.1l-1.4-1.4l-2.1,1.1c-0.3-0.2-0.7-0.3-1.1-0.4L9,0H7L6.2,2.3C5.9,2.4,5.5,2.5,5.2,2.7 L3.1,1.6L1.6,3.1l1.1,2.1C2.5,5.5,2.4,5.9,2.3,6.2L0,7v2l2.3,0.8c0.1,0.4,0.3,0.7,0.4,1.1l-1.1,2.1l1.4,1.4l2.1-1.1 c0.3,0.2,0.7,0.3,1.1,0.4L7,16h2l0.8-2.3c0.4-0.1,0.7-0.3,1.1-0.4l2.1,1.1l1.4-1.4l-1.1-2.1c0.2-0.3,0.3-0.7,0.4-1.1L16,9V7 l-2.3-0.8C13.6,5.9,13.5,5.5,13.3,5.2z M8,11c-1.7,0-3-1.3-3-3s1.3-3,3-3s3,1.3,3,3S9.7,11,8,11z"/></g></g><g transform="translate(80 0)"><g class="nc-icon-wrapper" fill="#585c64"><path fill="#585c64" d="M15,1h-2V0H3v0l0,0v1H1C0.4,1,0,1.4,0,2v13c0,0.6,0.4,1,1,1h5h4h5c0.6,0,1-0.4,1-1V2C16,1.4,15.6,1,15,1z M8,5L5,2h6L8,5z M2,3h1v5l2.7-0.9l1.4,1.4c0,0-0.1,0.1-0.1,0.1L5.3,14H2V3z M14,14h-3.3L8.9,8.7c0-0.1,0-0.1-0.1-0.1l1.4-1.4L13,8 V3h1V14z"/></g></g><g transform="translate(96 0)"><g class="nc-icon-wrapper" fill="#585c64"><path fill="#585c64" d="M8,0C3.589,0,0,3.589,0,8s3.589,8,8,8s8-3.589,8-8S12.411,0,8,0z M13.91,9H8.677L6.929,4.628L5.071,5.372 L6.523,9H2.09C2.035,8.674,2,8.341,2,8c0-3.309,2.691-6,6-6s6,2.691,6,6C14,8.341,13.965,8.674,13.91,9z"/></g></g><g transform="translate(112 0)"><g class="nc-icon-wrapper" fill="#585c64"><path data-color="color-2" fill="#585c64" d="M10,14H6c0,1.1,0.9,2,2,2S10,15.1,10,14z"/> <path fill="#585c64" d="M15,11h-0.5C13.8,10.3,13,9.3,13,8V5c0-2.8-2.2-5-5-5S3,2.2,3,5v3c0,1.3-0.8,2.3-1.5,3H1c-0.6,0-1,0.4-1,1 s0.4,1,1,1h14c0.6,0,1-0.4,1-1S15.6,11,15,11z"/></g></g><g transform="translate(128 0)"><g class="nc-icon-wrapper" fill="#585c64"><path fill="#585c64" d="M8,0C3.6,0,0,3.1,0,7c0,3.9,3.6,7,8,7c0.2,0,0.4,0,0.6,0l5.4,2v-4.4c1.2-1.2,2-2.8,2-4.6C16,3.1,12.4,0,8,0z M12,10.8v2.3L8.9,12c0,0-0.7,0-0.9,0c-3.3,0-6-2.2-6-5s2.7-5,6-5s6,2.2,6,5C14,9.2,12,10.8,12,10.8z"/></g></g><g transform="translate(144 0)"><g class="nc-icon-wrapper" fill="#585c64"><path d="M11,16a1,1,0,0,1-.707-.293l-2-2,1.414-1.414L11,13.586l3.293-3.293,1.414,1.414-4,4A1,1,0,0,1,11,16Z" fill="#585c64" data-color="color-2"/> <path d="M7,14H2V5H14V9h2V3a1,1,0,0,0-1-1H13V0H11V2H9V0H7V2H5V0H3V2H1A1,1,0,0,0,0,3V15a1,1,0,0,0,1,1H7Z" fill="#585c64"/></g></g></svg>