<svg id="Layer_1" data-name="Layer 1" xmlns="http://www.w3.org/2000/svg" viewBox="0 0 192 16"><defs><style>.cls-1{fill:#585c64;}</style></defs><title>cd-nav-iconsArtboard 1</title><path class="cls-1" d="M15,16H1a.94.94,0,0,1-1-1V1A.94.94,0,0,1,1,0H15a.94.94,0,0,1,1,1V15A.94.94,0,0,1,15,16ZM2,14H14V2H2Z"/><path class="cls-1" d="M6,4A.94.94,0,0,1,7,5,.94.94,0,0,1,6,6,.94.94,0,0,1,5,5,.94.94,0,0,1,6,4Z"/><polygon class="cls-1" points="3 12 5 8 7 10 10 6 13 12 3 12"/><path class="cls-1" d="M24,2a2,2,0,0,1,2,2V5a2,2,0,0,1-4,0V4a2,2,0,0,1,2-2m0-2a4,4,0,0,0-4,4V5a4,4,0,0,0,8,0V4a4,4,0,0,0-4-4Z"/><path class="cls-1" d="M25,12a4,4,0,0,1,3.5,2H19.6a4,4,0,0,1,3.5-2H25m0-2H23a6,6,0,0,0-6,6H31a6,6,0,0,0-6-6Z"/><path class="cls-1" d="M44,0H33V16H44a3,3,0,0,0,3-3V3A3,3,0,0,0,44,0Zm1,13a.94.94,0,0,1-1,1H35V2h9a.94.94,0,0,1,1,1Z"/><polygon class="cls-1" points="37 9 39 7 41 9 41 3 37 3 37 9"/><path class="cls-1" d="M56,0c-4.4,0-8,3.1-8,7s3.6,7,8,7h.6L62,16V11.6A6.51,6.51,0,0,0,64,7C64,3.1,60.4,0,56,0Zm4,10.8v2.3L56.9,12H56c-3.3,0-6-2.2-6-5s2.7-5,6-5,6,2.2,6,5A5.55,5.55,0,0,1,60,10.8Z"/><path class="cls-1" d="M72,0a8,8,0,1,0,8,8A8,8,0,0,0,72,0Zm5.9,9H72.7L70.9,4.6l-1.8.8L70.5,9H66.1A3.4,3.4,0,0,1,66,8,6,6,0,0,1,78,8,3.4,3.4,0,0,1,77.9,9Z"/><path class="cls-1" d="M90,14H86a2,2,0,0,0,4,0Z"/><path class="cls-1" d="M95,11h-.5A4.35,4.35,0,0,1,93,8V5A5,5,0,0,0,83,5V8a4.35,4.35,0,0,1-1.5,3H81a1,1,0,0,0,0,2H95a1,1,0,0,0,0-2Z"/><path class="cls-1" d="M103.36,0h8.12a.58.58,0,0,1,.42.35,1.17,1.17,0,0,1,.1.53V12.82a1.29,1.29,0,0,1-.08.4.55.55,0,0,1-.51.38h-1.25a2.67,2.67,0,0,0-2-2.62,1.74,1.74,0,0,0-1.42.58,3.3,3.3,0,0,0-.87,2h-2.5a.49.49,0,0,1-.45-.3,1.05,1.05,0,0,1-.13-.54V.79a.79.79,0,0,1,.42-.75Z"/><path class="cls-1" d="M96,8.42c0-.13,0-.26.06-.39a4.26,4.26,0,0,1,.38-1.09c.24-.48.5-1,.75-1.43s.42-.81.64-1.21a3.41,3.41,0,0,1,.43-.66.68.68,0,0,1,.49-.23h2.78c.38,0,.62.32.62.85v8.46a1,1,0,0,1-.24.72.51.51,0,0,1-.37.17,3.26,3.26,0,0,0-.93-2.1A1.71,1.71,0,0,0,99.24,11c-1,.08-1.88,1.1-2,2.63h-.62c-.33,0-.56-.28-.6-.73,0,0,0,0,0,0Zm4.31-3.31H98.86a.36.36,0,0,0-.32.22c-.19.38-.39.76-.59,1.13l-.73,1.43a4.5,4.5,0,0,0-.16.44c0,.05,0,.11,0,.17h3.27Z"/><path class="cls-1" d="M108,16c-.79,0-1.42-.89-1.42-2s.66-1.94,1.42-1.93,1.43.89,1.42,2S108.78,16,108,16Z"/><path class="cls-1" d="M99.39,16c-.78,0-1.43-.89-1.43-2s.65-2,1.43-2,1.42.89,1.42,2S100.16,16,99.39,16Z"/><path class="cls-1" d="M138,0l1.06.37c.18.06.35.14.52.21a.52.52,0,0,1,.34.54c0,.29-.1.58-.15.87,0,.14,0,.28-.05.42a.6.6,0,0,0,.18.49c.28.26.56.52.83.79a.61.61,0,0,0,.62.18l1.14-.26a.52.52,0,0,1,.64.31c.21.45.42.91.62,1.37a.52.52,0,0,1-.19.74c-.19.16-.41.3-.61.45l-.42.33a.52.52,0,0,0-.18.4c0,.39,0,.79,0,1.19a.62.62,0,0,0,.3.52l.67.39c.13.09.27.17.39.27a.47.47,0,0,1,.18.57l-.54,1.43a.82.82,0,0,1-.12.2.42.42,0,0,1-.44.21l-1-.17-.32,0a.44.44,0,0,0-.39.13c-.28.29-.56.57-.83.86a.73.73,0,0,0-.16.71c.08.33.17.66.24,1a.5.5,0,0,1-.33.67c-.47.23-.94.44-1.42.64a.47.47,0,0,1-.63-.17c-.18-.23-.35-.47-.52-.71-.37-.52-.46-.57-1.1-.54l-.75,0a.7.7,0,0,0-.58.35c-.15.25-.3.5-.46.75a3.07,3.07,0,0,1-.28.35.35.35,0,0,1-.4.1l-1.5-.56-.2-.11a.43.43,0,0,1-.21-.45c.06-.34.11-.68.17-1l0-.31a.57.57,0,0,0-.17-.46l-.82-.76a.59.59,0,0,0-.59-.14l-1,.23-.2,0a.46.46,0,0,1-.56-.29c-.23-.49-.45-1-.65-1.49a.44.44,0,0,1,.17-.61c.27-.21.55-.41.83-.59a.82.82,0,0,0,.41-.8c0-.35,0-.71-.06-1.07a.4.4,0,0,0-.21-.37l-.83-.54-.21-.13a.82.82,0,0,1-.32-.39V6L128,6l.55-1.56a.49.49,0,0,1,.38-.33.92.92,0,0,1,.37,0,8.72,8.72,0,0,1,.89.16A.76.76,0,0,0,131,4c.21-.25.45-.48.68-.71a.62.62,0,0,0,.17-.58c0-.13-.05-.25-.07-.38-.07-.33-.14-.65-.2-1a.39.39,0,0,1,.23-.42c.26-.13.53-.28.8-.4s.55-.22.83-.32a.45.45,0,0,1,.52.19c.25.35.52.69.77,1a.45.45,0,0,0,.41.19l1.1,0a.7.7,0,0,0,.67-.39c.16-.27.34-.54.51-.81a.8.8,0,0,1,.43-.38Zm1.34,8A3.39,3.39,0,0,0,136,4.61,3.43,3.43,0,0,0,132.62,8,3.39,3.39,0,0,0,136,11.39,3.35,3.35,0,0,0,139.38,8Z"/><path class="cls-1" d="M145.78,6.06c.12-.55.18-1.12.35-1.66A5.85,5.85,0,0,1,151.06.09a5.78,5.78,0,0,1,6.16,2.82,5.71,5.71,0,0,1-.17,6.68c-1.56,2.18-3.31,4.23-5,6.41l-2.33-2.92c-.71-.89-1.38-1.82-2.14-2.68a7.61,7.61,0,0,1-1.77-4.17Zm6.23,7L155.27,9l.31-.41a4.34,4.34,0,0,0-6.42-5.74,4.24,4.24,0,0,0-.75,5.65C149.51,10.06,150.75,11.51,152,13.1Z"/><path class="cls-1" d="M154.87,2.87a4.32,4.32,0,0,0-5.71,0,4.24,4.24,0,0,0-.75,5.65c1.1,1.55,2.34,3,3.6,4.59L155.27,9l.31-.41A4.34,4.34,0,0,0,154.87,2.87ZM152,8.23a2.13,2.13,0,0,1-2.07-2.17,2.1,2.1,0,0,1,4.2.14A2.14,2.14,0,0,1,152,8.23Z"/><path class="cls-1" d="M118.29,16c-1-.19-1.91-.32-2.84-.59a20.76,20.76,0,0,1-2.35-1,1.15,1.15,0,0,1-.62-1.49,4.74,4.74,0,0,1,2-2.89c.65-.45,1.38-.8,2.12-1.22l2.42,4.09c.16-1.35.7-2.68-.25-4h2.34c-1,1.26-.43,2.62-.27,4l2.42-4.05c1.88.81,3.54,1.79,4.15,3.9a1.2,1.2,0,0,1-.68,1.7,11.51,11.51,0,0,1-4.39,1.35c-.23,0-.45.09-.68.14Zm5.27-2.1a8,8,0,0,0,.85,0c.1,0,.26-.18.25-.24s-.16-.32-.25-.32a16.07,16.07,0,0,0-1.7,0c-.09,0-.22.19-.25.32s.15.23.25.24A8,8,0,0,0,123.56,13.9Z"/><path class="cls-1" d="M120,0a3.89,3.89,0,0,1,3.75,4,3.8,3.8,0,1,1-7.59,0A3.89,3.89,0,0,1,120,0Z"/></svg>