<svg xmlns="http://www.w3.org/2000/svg" xmlns:xlink="http://www.w3.org/1999/xlink" width="500" height="500" viewBox="0 0 500 500"><defs><linearGradient id="a" x1="-762.94" y1="782.91" x2="-761.78" y2="782.86" gradientTransform="matrix(387.29, 0, 0, -485.15, 295510.48, 380064.71)" gradientUnits="userSpaceOnUse"><stop offset="0" stop-color="#00c5ec"/><stop offset="1" stop-color="#008dc3"/></linearGradient></defs><title>Logo</title><path d="M432.68,430.7a15.34,15.34,0,0,0-3.38.35L247.89,249.63,428.67,68.85a16.38,16.38,0,0,0,4,.5,16.89,16.89,0,1,0-16.89-16.89,17.72,17.72,0,0,0,.24,2.71L221.57,249.63,416.14,444.2a18.29,18.29,0,0,0-.35,3.38,16.89,16.89,0,1,0,16.9-16.88Zm-323-283.77a21.36,21.36,0,0,0,3-.21l82.82,83.49L379.79,45.92a22.74,22.74,0,0,0,3.77.31,23.12,23.12,0,1,0-23.12-23.11h0a20.67,20.67,0,0,0,.15,2.49l-165,165-63-63.54a24,24,0,0,0,.25-3.28,23.12,23.12,0,1,0-23.12,23.12h0ZM383.52,453.77a23.3,23.3,0,0,0-3.13.24L195.85,269.48l-83.07,83.06a23.38,23.38,0,1,0,20,23.4,23.62,23.62,0,0,0-.25-3.66L195.85,309,360.62,473.72a21.89,21.89,0,0,0-.25,3.13,23.12,23.12,0,1,0,23.15-23.08ZM169.43,249.63,83.86,164.06a18.18,18.18,0,0,0,.35-3.37,16.89,16.89,0,1,0-16.89,16.88h0a15.34,15.34,0,0,0,3.38-.35l72.38,72.37L71.47,321.23a15.7,15.7,0,0,0-4.15-.53,16.89,16.89,0,1,0,16.89,16.89,16.62,16.62,0,0,0-.2-2.54Z" fill="url(#a)"/></svg>