<svg xmlns="http://www.w3.org/2000/svg" xmlns:xlink="http://www.w3.org/1999/xlink" width="387.282" height="485.154" viewBox="0 0 387.282 485.154">
  <defs>
    <linearGradient id="linear-gradient" x1="-0.05" y1="0.5" x2="1.076" y2="0.549" gradientUnits="objectBoundingBox">
      <stop offset="0" stop-color="#00c5ec"/>
      <stop offset="1" stop-color="#008dc3"/>
    </linearGradient>
  </defs>
  <path id="Path_2062" data-name="Path 2062" d="M1049.344,417.909a14.831,14.831,0,0,0-3.278.341L870.042,242.221l175.41-175.41a15.989,15.989,0,0,0,3.892.478A16.388,16.388,0,1,0,1032.956,50.9a16.748,16.748,0,0,0,.234,2.629L844.506,242.221,1033.3,431.014a17.191,17.191,0,0,0-.341,3.278,16.388,16.388,0,1,0,16.386-16.383Zm-313.4-275.341a20.375,20.375,0,0,0,2.9-.2l80.365,81.007L998.031,44.553a21.383,21.383,0,0,0,3.653.308,22.43,22.43,0,1,0-22.429-22.43,19.224,19.224,0,0,0,.14,2.423L819.276,184.968l-61.147-61.655a23.93,23.93,0,0,0,.239-3.175,22.43,22.43,0,1,0-22.428,22.429Zm265.7,297.727a22.309,22.309,0,0,0-3.039.239L819.549,261.476l-80.6,80.6a21.912,21.912,0,0,0-3.039-.239A22.688,22.688,0,1,0,758.1,361.23l61.451-61.449L979.426,459.656a21.917,21.917,0,0,0-.239,3.039,22.43,22.43,0,1,0,22.464-22.4ZM793.91,242.221l-83.028-83.028a17.211,17.211,0,0,0,.341-3.278A16.388,16.388,0,1,0,694.836,172.3a14.832,14.832,0,0,0,3.278-.341l70.227,70.222-69.475,69.508a15.7,15.7,0,0,0-4.028-.512,16.388,16.388,0,1,0,16.388,16.388,14.955,14.955,0,0,0-.2-2.458Z" transform="translate(-678.449)" fill="url(#linear-gradient)"/>
</svg>
