<svg xmlns="http://www.w3.org/2000/svg" xmlns:xlink="http://www.w3.org/1999/xlink" viewBox="0 0 1932.314 346.743">
  <defs>
    <style>
      .cls-1 {
        fill: #fff;
      }

      .cls-2 {
        fill: url(#linear-gradient);
      }

      .cls-3 {
        fill: url(#radial-gradient);
      }
    </style>
    <linearGradient id="linear-gradient" y1="0.5" x2="1" y2="0.5" gradientUnits="objectBoundingBox">
      <stop offset="0" stop-color="#42c6ea"/>
      <stop offset="1" stop-color="#148abc"/>
    </linearGradient>
    <radialGradient id="radial-gradient" cx="0.5" cy="0.5" r="0.5" gradientUnits="objectBoundingBox">
      <stop offset="0" stop-color="#fff"/>
      <stop offset="1" stop-color="#ff3f00"/>
    </radialGradient>
  </defs>
  <g id="Group_2140" data-name="Group 2140" transform="translate(21557.457 -9047)">
    <g id="Group_2138" data-name="Group 2138" transform="translate(-285 9)">
      <g id="Group_2131" data-name="Group 2131" transform="translate(-20966.074 9105.055)">
        <path id="Path_2050" data-name="Path 2050" class="cls-1" d="M493.751,48.63l-43.337,81.842L407.078,48.63H381.92l68.494,125.984L518.885,48.63Z" transform="translate(243.632 2.979)"/>
        <rect id="Rectangle_1095" data-name="Rectangle 1095" class="cls-1" width="22.937" height="120.591" transform="translate(1006.481 51.609)"/>
        <path id="Path_2051" data-name="Path 2051" class="cls-1" d="M393.04,46.87a64.59,64.59,0,1,0,64.59,64.59A64.587,64.587,0,0,0,393.04,46.87Zm0,107.341a42.751,42.751,0,1,1,42.751-42.751A42.754,42.754,0,0,1,393.04,154.211Z" transform="translate(166.628 0.444)"/>
        <path id="Path_2052" data-name="Path 2052" class="cls-1" d="M621.96,46.87a64.59,64.59,0,1,0,64.59,64.59A64.587,64.587,0,0,0,621.96,46.87Zm0,107.341a42.751,42.751,0,1,1,42.751-42.751A42.754,42.754,0,0,1,621.96,154.211Z" transform="translate(496.303 0.444)"/>
        <path id="Path_2053" data-name="Path 2053" class="cls-1" d="M304.064,48.673H279.516l-41.141,85.893h0l-.83,1.708L193.917,48.6l-25.207.073L226.2,160.456s-12.908,40.14-48.437,40.457l2.269,22.62s38.334,11.249,68.1-60.1h0l1.464-2.977Z" transform="translate(-63.418 2.936)"/>
        <path id="Path_2054" data-name="Path 2054" class="cls-1" d="M378.044,170.38c-10,12.323-25.207,10.2-25.207,10.2-25.207,0-25.207-20.887-25.207-20.887V98.885h48.705V77.558H327.631v-49H304.693v49H284.66V98.885h20.033v60.808c0,47.485,48.119,42.751,48.119,42.751,22.6,0,35.211-11.42,35.211-11.42Z" transform="translate(103.565 -25.925)"/>
        <path id="Path_2055" data-name="Path 2055" class="cls-1" d="M579.954,170.38c-10,12.323-25.207,10.2-25.207,10.2-25.207,0-25.207-20.887-25.207-20.887V98.885h48.705V77.558H529.541v-49H506.6v49H486.57V98.885H506.6v60.808c0,47.485,48.119,42.751,48.119,42.751,22.6,0,35.211-11.42,35.211-11.42Z" transform="translate(394.342 -25.925)"/>
        <ellipse id="Ellipse_301" data-name="Ellipse 301" class="cls-1" cx="17.593" cy="17.593" rx="17.593" ry="17.593" transform="translate(1000.356)"/>
        <path id="Path_2056" data-name="Path 2056" class="cls-1" d="M539.658,131.892l-.22-9.687V96.363s5.612-48.778-38.969-48.778c0,0-33.8-4.319-53.61,15.495l10,16.471s13.884-11.639,36.382-11.639c19.911,0,25.011,10.346,25.011,28.428v4.636c-7.491-3.782-17.374-6.564-30.306-6.564,0,0-51.682-1.732-51.682,41.336,0,35.528,43.922,39.969,43.922,39.969,14.909,0,27.988-8.126,38.042-17.374v12.933H539.39V132.282A2.524,2.524,0,0,0,539.658,131.892Zm-56.636,22.425c-21.522,0-23.694-14.446-23.694-19.228s1.074-19.326,28.647-19.326c13.787,0,23.6,2.635,30.306,5.588V132.6C512.866,139.5,499.616,154.316,483.023,154.316Z" transform="translate(321.903 0.9)"/>
        <path id="Path_2057" data-name="Path 2057" class="cls-1" d="M290.892,47.4s-19.375-2.269-36.5,17.764V50.519H231.45v155L254.387,222.3V155.372c8.711,18.35,36.5,20.595,36.5,20.595s59.442-1.464,59.442-65.176C350.333,110.79,350.333,47.4,290.892,47.4Zm0,103.706c-35.846,0-36.5-40.311-36.5-40.311v-4.368s2.587-37.358,36.5-37.358c0,0,35.846,1.44,35.846,41.751C326.762,110.79,325.468,151.1,290.892,151.1Z" transform="translate(26.935 1.09)"/>
        <path id="Path_2058" data-name="Path 2058" class="cls-1" d="M193.4,48.667S162.87,46.2,148.5,72.36V48.667h-.1L125.56,65.406V169.258H148.5v-60.3s6.954-37.749,37.8-37.749c0,0,14.372-.976,21.327,4.856l9.2-20.18A43.349,43.349,0,0,0,193.4,48.667Z" transform="translate(-125.56 2.942)"/>
        <path id="Path_2059" data-name="Path 2059" class="cls-1" d="M686.362,50.348c-26.646,0-41.995,21.815-41.995,21.815V48.64L621.43,65.428v103.8h22.937V114.938c0-6.954,8.077-42.8,40.384-42.8C705.1,72.138,703.2,94.27,703.2,94.27v74.936h22.937V94.27S728.82,50.348,686.362,50.348Z" transform="translate(588.558 2.993)"/>
      </g>
      <g id="Group_2132" data-name="Group 2132" transform="translate(-21272.457 9038.464)">
        <path id="Path_2060" data-name="Path 2060" class="cls-2" d="M224.794,60.285a11.087,11.087,0,0,1,.171-1.83A118.268,118.268,0,1,0,148.3,266.769a117.4,117.4,0,0,0,76.669-28.232,11.7,11.7,0,1,1,11.542,9.858,11.18,11.18,0,0,1-2.733-.342A131.211,131.211,0,1,1,148.3,17.29a130.355,130.355,0,0,1,85.453,31.624,11.379,11.379,0,0,1,2.757-.342,11.713,11.713,0,1,1-11.713,11.713Z" transform="translate(24.612 24.436)"/>
        <path id="Path_2061" data-name="Path 2061" class="cls-2" d="M288.326,273a16.027,16.027,0,0,0-16.032,16.032c0,.366.024.708.049,1.074a152.427,152.427,0,0,1-99.435,36.553c-84.648,0-153.533-68.885-153.533-153.533S88.26,19.589,172.908,19.589a152.38,152.38,0,0,1,99.435,36.553c-.024.342-.049.683-.049,1.049A16.032,16.032,0,1,0,288.326,41.16a16.4,16.4,0,0,0-3.294.342A171.374,171.374,0,0,0,172.908.19C77.572.19,0,77.762,0,173.122S77.572,346.03,172.908,346.03a171.485,171.485,0,0,0,112.148-41.311A16.03,16.03,0,1,0,288.326,273Z" transform="translate(0 -0.19)"/>
      </g>
      <path id="Path_2062" data-name="Path 2062" class="cls-3" d="M943.546,298.7a10.6,10.6,0,0,0-2.343.244L815.39,173.127,940.764,47.753a11.43,11.43,0,0,0,2.782.342,11.713,11.713,0,1,0-11.713-11.713A11.969,11.969,0,0,0,932,38.261L797.138,173.127,932.077,308.067a12.3,12.3,0,0,0-.244,2.343A11.713,11.713,0,1,0,943.546,298.7Zm-224-196.8a14.563,14.563,0,0,0,2.074-.146l57.441,57.9L906.87,31.844a15.284,15.284,0,0,0,2.611.22A16.032,16.032,0,1,0,893.45,16.032a13.751,13.751,0,0,0,.1,1.732L779.105,132.206,735.4,88.138a17.1,17.1,0,0,0,.171-2.269A16.032,16.032,0,1,0,719.542,101.9ZM909.457,314.7a15.957,15.957,0,0,0-2.172.171L779.3,186.89,721.689,244.5a15.662,15.662,0,0,0-2.172-.171,16.216,16.216,0,1,0,15.861,13.86L779.3,214.268,893.572,328.539a15.649,15.649,0,0,0-.171,2.172A16.032,16.032,0,1,0,909.457,314.7ZM760.975,173.127l-59.344-59.344a12.312,12.312,0,0,0,.244-2.343,11.713,11.713,0,1,0-11.713,11.713,10.6,10.6,0,0,0,2.343-.244L742.7,173.1l-49.657,49.681a11.222,11.222,0,0,0-2.879-.366,11.713,11.713,0,1,0,11.713,11.713,10.684,10.684,0,0,0-.146-1.757Z" transform="translate(-20295.4 9038)"/>
    </g>
  </g>
</svg>
