<svg xmlns="http://www.w3.org/2000/svg" width="96" height="16" viewBox="0 0 96 16"><g transform="translate(0 0)"><g class="nc-icon-wrapper" fill="#1a1a1a"><path fill="#1a1a1a" d="M11,16h2c0.6,0,1-0.4,1-1V8h1v0c0.3,0,0.6-0.1,0.8-0.3c0.4-0.4,0.3-1-0.1-1.4l-7-6c-0.4-0.3-0.9-0.3-1.3,0 l-7,6c-0.4,0.4-0.5,1-0.1,1.4C0.4,7.9,0.7,8,1,8c0.2,0,1,0,1,0v7c0,0.6,0.4,1,1,1h2c0.6,0,1-0.4,1-1v-3h4v3C10,15.6,10.4,16,11,16z"/></g></g><g transform="translate(16 0)"><g class="nc-icon-wrapper" fill="#1a1a1a"><path fill="#1a1a1a" d="M15,4H1C0.4,4,0,4.4,0,5v10c0,0.6,0.4,1,1,1h14c0.6,0,1-0.4,1-1V5C16,4.4,15.6,4,15,4z M11.1,14H4.9 c-0.4-1.4-1.5-2.5-2.9-2.9V8.9C3.4,8.5,4.5,7.4,4.9,6h6.3c0.4,1.4,1.5,2.5,2.9,2.9v2.3C12.6,11.5,11.5,12.6,11.1,14z"/> <circle fill="#1a1a1a" cx="8" cy="10" r="2"/> <rect data-color="color-2" x="2" fill="#1a1a1a" width="12" height="2"/></g></g><g transform="translate(32 0)"><g class="nc-icon-wrapper" fill="#1a1a1a"><path d="M5.249,7.438l.562.45L6.4,6.553,9.4,8.8a1,1,0,0,0,1.432-.245l4.555-6.832L13.723.613,9.754,6.565,6.6,4.2a1,1,0,0,0-1.514.394L4.016,7A2.009,2.009,0,0,1,5.249,7.438Z" fill="#1a1a1a"/> <polygon points="3.299 11 2.239 11 0.68 14.508 2.508 15.32 4.132 11.666 3.299 11" fill="#1a1a1a"/> <path d="M9,14a1,1,0,0,1-.625-.219L3.649,10H0V8H4a1,1,0,0,1,.625.219l4.457,3.566,5.261-3.157,1.029,1.715L9.515,13.857A1,1,0,0,1,9,14Z" fill="#1a1a1a" data-color="color-2"/></g></g><g transform="translate(48 0)"><g class="nc-icon-wrapper" fill="#1a1a1a"><path fill="#1a1a1a" d="M13.2,5.2l-2.4-2.4l2.4-2.4C12.7,0.1,12.1,0,11.5,0C9,0,7,2,7,4.5C7,5,7.1,5.4,7.2,5.9l-6.6,4.9 c-0.8,0.6-0.8,1.7-0.2,2.4l2.3,2.4c0.7,0.7,1.8,0.6,2.4-0.2l4.9-6.6C10.5,8.9,11,9,11.5,9C14,9,16,7,16,4.5c0-0.6-0.1-1.2-0.3-1.7 L13.2,5.2z"/></g></g><g transform="translate(64 0)"><g class="nc-icon-wrapper" fill="#1a1a1a"><path fill="#1a1a1a" d="M8,0C5.8,0,4,1.8,4,4v1H2C1.4,5,1,5.4,1,6v9c0,0.6,0.4,1,1,1h12c0.6,0,1-0.4,1-1V6c0-0.6-0.4-1-1-1h-2V4 C12,1.8,10.2,0,8,0z M9,11.7V13H7v-1.3c-0.6-0.3-1-1-1-1.7c0-1.1,0.9-2,2-2s2,0.9,2,2C10,10.7,9.6,11.4,9,11.7z M10,5H6V4 c0-1.1,0.9-2,2-2s2,0.9,2,2V5z"/></g></g><g transform="translate(80 0)"><g class="nc-icon-wrapper" fill="#1a1a1a"><path data-color="color-2" fill="#1a1a1a" d="M15.4,2l-1.7-1.7C13.5,0.1,13.3,0,13,0H9l0.7,2H15.4z"/> <path data-color="color-2" fill="#1a1a1a" d="M6.3,2L7,0H3C2.7,0,2.5,0.1,2.3,0.3L0.6,2H6.3z"/> <path fill="#1a1a1a" d="M10,9L8,8L6,9V3H0v12c0,0.6,0.4,1,1,1h14c0.6,0,1-0.4,1-1V3h-6V9z"/></g></g></svg>